# xmcd
#
# Track frame offsets:
#	150
#	14879
#	30995
#	47528
#	65867
#	80989
#	97571
#	113890
#	127402
#	143145
#	159666
#	177572
#	196693
#	211665
#	227181
#	240779
#	254495
#	266205
#	281999
#	297576
#	312207
#	325323
#	342058
#
# Disc length: 4739 seconds
#
# Revision: 1
# Processed by: cddbd v1.5.2PL0 Copyright (c) Steve Scherf et al.
# Submitted via: audiograbber 1.83.01
#
DISCID=60128117
DTITLE=Coletânea de Forró - Forró 2002
DYEAR=1900
DGENRE=
TTITLE0=Gatinha Manhosa - Eu Te Amo
TTITLE1=Limão Com Mel - Toma Conta De Mim
TTITLE2=Cavaleiros Do Forró - O Esporte Da Mulher
TTITLE3=Forró Chama Chuva - San Marina
TTITLE4=Sirano e Sirino - Fama De Raparigueiro
TTITLE5=Ferro Na Boneca - Não Dá Mais
TTITLE6=Painel De Controle - Prisioneira
TTITLE7=Banda Líbanos - O Que Passou Passou
TTITLE8=Calcinha Preta - Amor Da Minha Vida
TTITLE9=Brasas Do Forró - Solidão Que Me Devora
TTITLE10=Ton Oliveira - Locadora De Mulher
TTITLE11=Forró Chama Chuva - A  Novidade
TTITLE12=Forró Do Litoral - Não Dá Mais
TTITLE13=Banda Líbanos - Estranho Amore
TTITLE14=Bruno e Marrone - Credo Em Cruz Ave Maria
TTITLE15=Toca Do Vale - O Invejoso
TTITLE16=Bruno e Marrone - Tá Liberado
TTITLE17=Santanna - Tamborete de Forró
TTITLE18=Cavaleiros Do Forró - Se Réi a Resposta
TTITLE19=Dj Maluco - Forró Da Porrada
TTITLE20=Sirano e Sirino - Consolo De Corno É Cana
TTITLE21=Gatinha Manhosa - Amor Ou Amizade
TTITLE22=Forró Do Litoral - Bomba Relógio
EXTD=
EXTT0=
EXTT1=
EXTT2=
EXTT3=
EXTT4=
EXTT5=
EXTT6=
EXTT7=
EXTT8=
EXTT9=
EXTT10=
EXTT11=
EXTT12=
EXTT13=
EXTT14=
EXTT15=
EXTT16=
EXTT17=
EXTT18=
EXTT19=
EXTT20=
EXTT21=
EXTT22=
PLAYORDER=
